<?xml version="1.0" encoding="UTF-8" standalone="no"?>
<!-- Created with Inkscape (http://www.inkscape.org/) -->

<svg
   xmlns:dc="http://purl.org/dc/elements/1.1/"
   xmlns:cc="http://creativecommons.org/ns#"
   xmlns:rdf="http://www.w3.org/1999/02/22-rdf-syntax-ns#"
   xmlns:svg="http://www.w3.org/2000/svg"
   xmlns="http://www.w3.org/2000/svg"
   version="1.1"
   width="526.625"
   height="553.22626"
   id="svg2">
  <defs
     id="defs4" />
  <metadata
     id="metadata7">
    <rdf:RDF>
      <cc:Work
         rdf:about="">
        <dc:format>image/svg+xml</dc:format>
        <dc:type
           rdf:resource="http://purl.org/dc/dcmitype/StillImage" />
        <dc:title></dc:title>
      </cc:Work>
    </rdf:RDF>
  </metadata>
  <g
     transform="translate(-153.4651,-873.65397)"
     id="layer1">
    <g
       transform="translate(1212.9923,-123.45079)"
       id="g6531">
      <g
         transform="translate(-3.1716,1.63601)"
         id="g4598"
         style="fill:#ffffff;stroke:#292f6d;stroke-opacity:1">
        <g
           transform="translate(-1603.1681,108)"
           id="g4600"
           style="fill:#ffffff;stroke:#292f6d;stroke-opacity:1">
          <path
             d="m 714.37919,1330.8483 c 20.56481,11.0707 35.05841,4.7555 43.85332,3.58 l 11.37173,24.3964 c -18.74175,7.46 -59.14328,-8.3029 -55.22505,-27.9764 z"
             id="path4602"
             style="fill:#ffffff;stroke:#292f6d;stroke-width:3.5;stroke-linecap:butt;stroke-linejoin:miter;stroke-miterlimit:4;stroke-opacity:1;stroke-dasharray:none" />
          <path
             d="m 686.9788,1293.3232 c 30.14835,15.2813 62.12552,5.2357 82.92097,0.2212 l 10.31107,23.3358 c -15.62075,45.9561 -95.12858,22.694 -93.23204,-23.557 z"
             id="path4604"
             style="fill:#ffffff;stroke:#292f6d;stroke-width:3.5;stroke-linecap:butt;stroke-linejoin:miter;stroke-miterlimit:4;stroke-opacity:1;stroke-dasharray:none" />
          <path
             d="m 662.3601,1243.7321 c 22.88832,31.0467 66.91471,40.6782 87.3802,32.5531 l -0.218,32.5134 c -37.14252,-1.0668 -83.31927,-0.9893 -87.1622,-65.0665 z"
             id="path4606"
             style="fill:#ffffff;stroke:#292f6d;stroke-width:3.5;stroke-linecap:butt;stroke-linejoin:miter;stroke-miterlimit:4;stroke-opacity:1;stroke-dasharray:none" />
          <path
             d="m 644.98028,1201.6548 c 14.84705,21.6394 63.43479,56.9395 96.44233,51.7813 l 10.28805,22.7786 c -29.89657,19.846 -106.92968,-9.5707 -106.73038,-74.5599 z"
             id="path4608"
             style="fill:#ffffff;stroke:#292f6d;stroke-width:3.5;stroke-linecap:butt;stroke-linejoin:miter;stroke-miterlimit:4;stroke-opacity:1;stroke-dasharray:none" />
          <path
             d="m 631.76561,1162.623 c 12.82854,22.2301 62.74136,61.5132 94.25776,59.4535 l 12.29142,34.8923 c -35.06828,6.1163 -114.77131,-43.755 -106.54918,-94.3458 z"
             id="path4610"
             style="fill:#ffffff;stroke:#292f6d;stroke-width:3.5;stroke-linecap:butt;stroke-linejoin:miter;stroke-miterlimit:4;stroke-opacity:1;stroke-dasharray:none" />
          <path
             d="m 621.10629,1129.1828 c 15.20835,26.4768 63.22591,57.6512 92.58331,59.9045 l 9.62051,37.5297 c -38.46033,-4.5371 -112.71688,-57.204 -102.20382,-97.4342 z"
             id="path4612"
             style="fill:#ffffff;stroke:#292f6d;stroke-width:3.5;stroke-linecap:butt;stroke-linejoin:miter;stroke-miterlimit:4;stroke-opacity:1;stroke-dasharray:none" />
          <path
             d="m 610.86674,1094.1881 c 24.06253,31.9161 66.02247,56.8666 91.05573,58.0203 l 7.15978,40.0602 c -38.65632,-6.2941 -106.9422,-48.7047 -98.21551,-98.0805 z"
             id="path4614"
             style="fill:#ffffff;stroke:#292f6d;stroke-width:3.5;stroke-linecap:butt;stroke-linejoin:miter;stroke-miterlimit:4;stroke-opacity:1;stroke-dasharray:none" />
          <path
             d="m 599.98776,1056.1063 c 40.02389,43.4732 70.75572,58.1123 93.05113,61.6339 l 3.92465,37.5597 c -36.00116,-4.5631 -107.63016,-52.2016 -96.97578,-99.1936 z"
             id="path4616"
             style="fill:#ffffff;stroke:#292f6d;stroke-width:3.5;stroke-linecap:butt;stroke-linejoin:miter;stroke-miterlimit:4;stroke-opacity:1;stroke-dasharray:none" />
          <path
             d="m 589.8285,1009.3019 c 34.34707,49.2344 77.04382,68.0805 95.67218,77.03 l 1.48064,34.3281 c -28.82992,-4.5932 -113.22743,-53.9699 -97.15282,-111.3581 z"
             id="path4618"
             style="fill:#ffffff;stroke:#292f6d;stroke-width:3.5;stroke-linecap:butt;stroke-linejoin:miter;stroke-miterlimit:4;stroke-opacity:1;stroke-dasharray:none" />
          <path
             d="m 579.64747,969.66549 c 43.16723,50.68781 57.33209,59.76411 103.185,86.37751 l -2.47424,33.1666 c -11.14833,-4.9368 -110.6979,-54.3598 -100.71076,-119.54411 z"
             id="path4620"
             style="fill:#ffffff;stroke:#292f6d;stroke-width:3.5;stroke-linecap:butt;stroke-linejoin:miter;stroke-miterlimit:4;stroke-opacity:1;stroke-dasharray:none" />
          <path
             d="m 568.41524,925.0797 c 39.24864,49.4613 69.71108,69.35114 110.77078,95.6097 l -3.89581,35.1237 C 651.80136,1051.1135 558.29372,982.38576 568.41524,925.0797 z"
             id="path4622"
             style="fill:#ffffff;stroke:#292f6d;stroke-width:3.5;stroke-linecap:butt;stroke-linejoin:miter;stroke-miterlimit:4;stroke-opacity:1;stroke-dasharray:none" />
          <path
             d="m 896.16926,1332.4696 c -20.56482,11.0707 -35.0584,4.7555 -43.8533,3.5801 l -11.37173,24.3964 c 18.74174,7.46 59.14328,-8.3029 55.22503,-27.9765 z"
             id="path4624"
             style="fill:#ffffff;stroke:#292f6d;stroke-width:3.5;stroke-linecap:butt;stroke-linejoin:miter;stroke-miterlimit:4;stroke-opacity:1;stroke-dasharray:none" />
          <path
             d="m 919.41873,1300.6272 c -30.14835,15.2813 -62.12552,5.2357 -82.92097,0.2212 l -1.81107,24.0858 c 23.03492,33.8564 90.02837,16.3757 84.73204,-24.307 z"
             id="path4626"
             style="fill:#ffffff;stroke:#292f6d;stroke-width:3.5;stroke-linecap:butt;stroke-linejoin:miter;stroke-miterlimit:4;stroke-opacity:1;stroke-dasharray:none" />
          <path
             d="m 949.85941,1252.6397 c -21.45038,28.5265 -73.2768,27.9689 -99.39611,20.9092 l -10.40065,32.8987 c 41.85127,16.6042 113.16928,8.2801 109.79676,-53.8079 z"
             id="path4628"
             style="fill:#ffffff;stroke:#292f6d;stroke-width:3.5;stroke-linecap:butt;stroke-linejoin:miter;stroke-miterlimit:4;stroke-opacity:1;stroke-dasharray:none" />
          <path
             d="m 963.41725,1218.9588 c -20.50991,20.6956 -67.01423,35.1346 -93.69233,31.0313 l -17.22003,27.2639 c 43.1336,9.5418 109.93886,2.6481 110.91236,-58.2952 z"
             id="path4630"
             style="fill:#ffffff;stroke:#292f6d;stroke-width:3.5;stroke-linecap:butt;stroke-linejoin:miter;stroke-miterlimit:4;stroke-opacity:1;stroke-dasharray:none" />
          <path
             d="m 872.33274,1253.7728 c 41.60714,7.1792 119.7026,-27.5798 108.29918,-77.8458 -19.24294,21.0981 -69.36562,49.403 -96.00776,48.2035"
             id="path4632"
             style="fill:#ffffff;stroke:#292f6d;stroke-width:3.5;stroke-linecap:butt;stroke-linejoin:miter;stroke-miterlimit:4;stroke-opacity:1;stroke-dasharray:none" />
          <path
             d="m 993.29124,1140.2368 c -22.55589,28.5178 -111.86332,64.398 -136.71682,65.4002 l -3.22102,32.4335 c 41.07705,4.5969 155.7559,-43.6663 139.93784,-97.8337 z"
             id="path4634"
             style="fill:#ffffff;stroke:#292f6d;stroke-width:3.5;stroke-linecap:butt;stroke-linejoin:miter;stroke-miterlimit:4;stroke-opacity:1;stroke-dasharray:none" />
          <path
             d="m 1006.5031,1103.0831 c -27.98214,30.9362 -70.08251,50.482 -93.61904,52.0099 l -10.34176,39.8834 c 38.82475,-3.4274 111.1922,-43.4321 103.9608,-91.8933 z"
             id="path4636"
             style="fill:#ffffff;stroke:#292f6d;stroke-width:3.5;stroke-linecap:butt;stroke-linejoin:miter;stroke-miterlimit:4;stroke-opacity:1;stroke-dasharray:none" />
          <path
             d="m 1017.5348,1065.9103 c -40.02392,43.4732 -72.00207,50.309 -94.29748,53.8306 l -8.8744,39.681 c 36.00806,-4.5493 114.70198,-44.7681 103.17188,-93.5116 z"
             id="path4638"
             style="fill:#ffffff;stroke:#292f6d;stroke-width:3.5;stroke-linecap:butt;stroke-linejoin:miter;stroke-miterlimit:4;stroke-opacity:1;stroke-dasharray:none" />
          <path
             d="m 1027.3871,1022.0305 c -42.66536,51.3269 -77.95435,59.6607 -99.56132,66.0699 l 0.99424,34.6816 c 36.38385,-0.2303 117.27358,-50.1616 98.56708,-100.7515 z"
             id="path4640"
             style="fill:#ffffff;stroke:#292f6d;stroke-width:3.5;stroke-linecap:butt;stroke-linejoin:miter;stroke-miterlimit:4;stroke-opacity:1;stroke-dasharray:none" />
          <path
             d="m 1038.9823,976.38295 c -43.16724,50.68855 -59.09986,55.16865 -104.95277,81.78205 l -1.41485,33.1666 c 25.24014,-3.2125 117.40712,-49.8255 106.36762,-114.94865 z"
             id="path4642"
             style="fill:#ffffff;stroke:#292f6d;stroke-width:3.5;stroke-linecap:butt;stroke-linejoin:miter;stroke-miterlimit:4;stroke-opacity:1;stroke-dasharray:none" />
          <path
             d="m 1051.9823,930.38295 c -35.8574,49.12217 -67.00348,65.93375 -113.95277,92.78205 l 2.83515,34.4166 c 26.57939,-4.1845 123.79482,-69.46665 111.11762,-127.19865 z"
             id="path4644"
             style="fill:#ffffff;stroke:#292f6d;stroke-width:3.5;stroke-linecap:butt;stroke-linejoin:miter;stroke-miterlimit:4;stroke-opacity:1;stroke-dasharray:none" />
          <path
             d="m 1069.7108,898.18257 c -42.2462,34.31909 -87.87286,75.21892 -132.06731,112.46033 l 8.48528,13.435 c 15.31034,-9.1293 94.66433,-44.21731 123.58203,-125.89533 z"
             id="path4646"
             style="fill:#ffffff;stroke:#292f6d;stroke-width:3.5;stroke-linecap:butt;stroke-linejoin:miter;stroke-miterlimit:4;stroke-opacity:1;stroke-dasharray:none" />
          <path
             d="m 550.68669,892.87932 c 42.24626,34.31909 86.10513,77.69379 130.29958,114.93448 l -8.48528,13.435 c -12.14318,-9.1293 -91.50256,-46.69146 -121.8143,-128.36948 z"
             id="path4648"
             style="fill:#ffffff;stroke:#292f6d;stroke-width:3.5;stroke-linecap:butt;stroke-linejoin:miter;stroke-miterlimit:4;stroke-opacity:1;stroke-dasharray:none" />
        </g>
        <g
           transform="translate(-542.46834,106.70711)"
           id="g4650"
           style="fill:#ffffff;stroke:#292f6d;stroke-opacity:1">
          <path
             d="m -177.28826,1250.8524 c 19.80629,-5.4755 38.32968,-43.0405 19.83804,-55.3409 -7.84986,18.3384 -52.73963,12.1921 -62.99312,15.863"
             id="path4652"
             style="fill:#ffffff;stroke:#292f6d;stroke-width:3.5;stroke-linecap:butt;stroke-linejoin:miter;stroke-miterlimit:4;stroke-opacity:1;stroke-dasharray:none" />
          <path
             d="m -181.10461,1216.4744 c 18.98701,1.9181 48.23453,-33.5887 33.90348,-50.959 -14.32107,16.7889 -74.82134,24.5722 -83.39649,27.2652"
             id="path4654"
             style="fill:#ffffff;stroke:#292f6d;stroke-width:3.5;stroke-linecap:butt;stroke-linejoin:miter;stroke-miterlimit:4;stroke-opacity:1;stroke-dasharray:none" />
          <path
             d="m -134.8745,1134.2252 c -14.32106,16.7889 -29.70557,18.3015 -38.28073,20.9945 l -12.15828,34.1716 c 30.37361,-3.4641 57.21812,-32.2172 50.43901,-55.1661 z"
             id="path4656"
             style="fill:#ffffff;stroke:#292f6d;stroke-width:3.5;stroke-linecap:butt;stroke-linejoin:miter;stroke-miterlimit:4;stroke-opacity:1;stroke-dasharray:none" />
          <path
             d="m -125.89885,1101.5119 c -12.40277,18.2517 -25.01008,22.145 -33.24003,25.7578 l -9.18834,30.9958 c 27.8611,-3.9448 51.44757,-34.666 42.42837,-56.7536 z"
             id="path4658"
             style="fill:#ffffff;stroke:#292f6d;stroke-width:3.5;stroke-linecap:butt;stroke-linejoin:miter;stroke-miterlimit:4;stroke-opacity:1;stroke-dasharray:none" />
          <path
             d="m -119.89885,1075.2619 c -12.40277,18.2517 -25.01008,22.395 -33.24003,26.0078 l -8.18834,28.7458 c 28.29292,-4.5925 53.60504,-37.4022 41.42837,-54.7536 z"
             id="path4660"
             style="fill:#ffffff;stroke:#292f6d;stroke-width:3.5;stroke-linecap:butt;stroke-linejoin:miter;stroke-miterlimit:4;stroke-opacity:1;stroke-dasharray:none" />
          <path
             d="m -108.64885,1044.0119 c -13.34956,21.5655 -33.57724,34.2551 -41.49003,36.7578 l -6.18834,24.2458 c 28.73941,-5.2535 54.3797,-35.0047 47.67837,-61.0036 z"
             id="path4662"
             style="fill:#ffffff;stroke:#292f6d;stroke-width:3.5;stroke-linecap:butt;stroke-linejoin:miter;stroke-miterlimit:4;stroke-opacity:1;stroke-dasharray:none" />
          <path
             d="m -104.39885,1012.5119 c -13.34956,21.5655 -30.07724,32.5051 -37.99003,35.0078 l -12.43834,37.2458 c 29.00298,-5.6845 67.47899,-48.853 50.42837,-72.2536 z"
             id="path4664"
             style="fill:#ffffff;stroke:#292f6d;stroke-width:3.5;stroke-linecap:butt;stroke-linejoin:miter;stroke-miterlimit:4;stroke-opacity:1;stroke-dasharray:none" />
          <path
             d="m -95.33819,988.22421 c -11.8938,7.65734 -44.43475,39.44019 -62.73877,53.92289 -24.39031,24.1887 -16.19234,38.4144 -12.61872,58.0742 4.79344,26.3704 -3.53191,50.7515 -15.81095,77.2356 l 6.58574,4.0903 c 3.02572,-1.4215 32.19736,-42.389 31.10844,-77.9779 -0.92046,-30.083 13.3274,-52.7355 18.87125,-57.4412 26.16197,-22.2066 38.89516,-42.6534 34.60301,-57.90389 z"
             id="path4666"
             style="fill:#ffffff;stroke:#292f6d;stroke-width:3.5;stroke-linecap:butt;stroke-linejoin:miter;stroke-miterlimit:4;stroke-opacity:1;stroke-dasharray:none" />
          <path
             d="m -352.27839,1190.2082 c 12.2743,18.3384 49.55478,26.9096 57.7591,30.5805 l 7.32032,9.2313 c -32.79817,31.6854 -76.94078,-3.8679 -65.07942,-39.8118 z"
             id="path4668"
             style="fill:#ffffff;stroke:#292f6d;stroke-width:3.5;stroke-linecap:butt;stroke-linejoin:miter;stroke-miterlimit:4;stroke-opacity:1;stroke-dasharray:none" />
          <path
             d="m -360.58293,1158.0908 c 10.79489,23.4817 32.65495,29.3394 37.33314,27.6158 l 6.7848,24.9363 c -16.36469,2.3514 -51.37582,-11.9855 -44.11794,-52.5521 z"
             id="path4670"
             style="fill:#ffffff;stroke:#292f6d;stroke-width:3.5;stroke-linecap:butt;stroke-linejoin:miter;stroke-miterlimit:4;stroke-opacity:1;stroke-dasharray:none" />
          <path
             d="m -370.31337,1127.1644 c 11.49169,22.1647 29.45729,33.1097 39.87169,32.3081 l 13.92604,30.2826 c -20.25248,8.586 -64.42465,-32.8452 -53.79773,-62.5907 z"
             id="path4672"
             style="fill:#ffffff;stroke:#292f6d;stroke-width:3.5;stroke-linecap:butt;stroke-linejoin:miter;stroke-miterlimit:4;stroke-opacity:1;stroke-dasharray:none" />
          <path
             d="m -378.1729,1097.446 c 6.90466,21.0008 32.08114,26.7412 40.31109,30.354 l 7.42058,29.7584 c -30.27146,-0.8714 -59.98976,-33.5954 -47.73167,-60.1124 z"
             id="path4674"
             style="fill:#ffffff;stroke:#292f6d;stroke-width:3.5;stroke-linecap:butt;stroke-linejoin:miter;stroke-miterlimit:4;stroke-opacity:1;stroke-dasharray:none" />
          <path
             d="m -384.88001,1072.0799 c 12.40277,18.2517 30.49016,23.8092 38.72011,27.422 l 4.82958,30.5136 c -28.1423,-4.3773 -52.94903,-36.6166 -43.54969,-57.9356 z"
             id="path4676"
             style="fill:#ffffff;stroke:#292f6d;stroke-width:3.5;stroke-linecap:butt;stroke-linejoin:miter;stroke-miterlimit:4;stroke-opacity:1;stroke-dasharray:none" />
          <path
             d="m -393.47836,1042.2441 c 10.97993,22.3554 38.7883,32.7538 48.5611,34.6365 l -4.94859,25.3065 c -27.61485,-7.0064 -49.84897,-34.6687 -43.61251,-59.943 z"
             id="path4678"
             style="fill:#ffffff;stroke:#292f6d;stroke-width:3.5;stroke-linecap:butt;stroke-linejoin:miter;stroke-miterlimit:4;stroke-opacity:1;stroke-dasharray:none" />
          <path
             d="m -400.02646,1006.5015 c 13.34956,21.5655 31.84501,38.5155 39.7578,41.0182 l 12.08479,31.9425 c -28.78577,-6.3361 -65.13156,-36.1431 -51.84259,-72.9607 z"
             id="path4680"
             style="fill:#ffffff;stroke:#292f6d;stroke-width:3.5;stroke-linecap:butt;stroke-linejoin:miter;stroke-miterlimit:4;stroke-opacity:1;stroke-dasharray:none" />
          <path
             d="m -406.81935,985.22421 c 11.8938,7.65734 43.68475,40.19019 61.98877,54.67289 27.53406,24.1887 11.94235,41.7801 10.04029,61.7384 -3.4966,36.6898 10.01646,66.2798 17.32157,81.9904 2.16343,4.6527 1.18505,25.8078 -9.16742,18.8338 -3.02572,-1.4215 -31.11559,-64.0536 -29.95895,-99.6404 0.9752,-30.0043 -4.89312,-48.7911 -14.37125,-57.4412 -24.29335,-22.171 -40.64563,-43.1517 -35.85301,-60.15389 z"
             id="path4682"
             style="fill:#ffffff;stroke:#292f6d;stroke-width:3.5;stroke-linecap:butt;stroke-linejoin:miter;stroke-miterlimit:4;stroke-opacity:1;stroke-dasharray:none" />
        </g>
      </g>
      <g
         transform="translate(-1008,-70)"
         id="g4181">
        <g
           transform="translate(0.85159,20.22078)"
           id="g3904"
           style="fill:#ffffff;stroke:#292f6d;stroke-opacity:1">
          <path
             d="m 416.26474,1471.5427 c -24.36214,19.3258 -45.6908,36.6916 -93.93309,61.8653 l 22.52206,46.2024 c 2.02816,3.3997 9.1655,4.7886 13.31473,2.424 30.47649,-17.3697 58.24519,-38.2661 93.54217,-67.5459 z"
             id="path3900"
             style="fill:#ffffff;stroke:#292f6d;stroke-width:3.5;stroke-linecap:butt;stroke-linejoin:miter;stroke-miterlimit:4;stroke-opacity:1;stroke-dasharray:none" />
          <path
             d="m -3.75,1466.6122 c 23.233255,19.7158 47.166768,39.4934 93.592933,65.7032 l -27.137232,42.4708 c -2.09455,3.2666 -9.126929,4.3992 -13.113579,1.9493 -29.282206,-17.9945 -55.8004464,-39.358 -89.420865,-69.1769 z"
             id="path3896"
             style="fill:#ffffff;stroke:#292f6d;stroke-width:3.5;stroke-linecap:butt;stroke-linejoin:miter;stroke-miterlimit:4;stroke-opacity:1;stroke-dasharray:none" />
          <path
             d="m 45.084237,1467.8915 c 15.37501,11.9338 -4.919413,18.4364 55.464203,46.5615 l -35.88803,56.1538 c 0,0 -0.90222,-7.1192 -5.61256,-10.5374 -16.16129,-12.7588 -31.437842,-22.8633 -46.984241,-33.7774 -6.7419462,-4.7331 -4.5981783,-6.7308 -0.227177,-12.3964 z"
             id="path3898"
             style="fill:#ffffff;stroke:#292f6d;stroke-width:3.5;stroke-linecap:butt;stroke-linejoin:miter;stroke-miterlimit:4;stroke-opacity:1;stroke-dasharray:none" />
          <path
             d="m 365.6718,1468.8209 c -16.08494,11.6542 11.12946,19.1086 -51.4174,45.77 l 29.61924,62.8808 c -0.27533,0.8971 -1.08383,-8.1269 5.27344,-13.1532 16.91467,-12.4693 34.51755,-23.1013 50.74337,-33.7103 7.0366,-4.6006 4.91593,-6.7085 0.64507,-12.6306 z"
             id="path3902"
             style="fill:#ffffff;stroke:#292f6d;stroke-width:3.5;stroke-linecap:butt;stroke-linejoin:miter;stroke-miterlimit:4;stroke-opacity:1;stroke-dasharray:none" />
          <path
             d="m 45,1467.8622 c 69.9747,49.8065 183.92173,94.2247 320.57421,0.8262 l 36.56347,51.378 c -0.85799,-1.1862 -5.83448,-2.7515 -9.63768,0.2958 -152.82002,94.2195 -255.84837,71.3718 -374.46967,-4.0314 -4.299582,-1.6958 -5.795183,-0.4835 -7.453954,-0.088 z"
             id="path3894"
             style="fill:#ffffff;stroke:#292f6d;stroke-width:3.5;stroke-linecap:butt;stroke-linejoin:miter;stroke-miterlimit:4;stroke-opacity:1;stroke-dasharray:none" />
        </g>
        <g
           transform="translate(1762.5,-97.5)"
           id="g4169"
           style="fill:#292f6d;fill-opacity:1">
          <path
             d="m -1490.0319,1673.4376 c -0.8393,-4.4743 -0.3008,-5.1727 4.5922,-5.9551 3.2492,-0.5195 3.9792,-1.0058 3.5755,-2.3813 -0.279,-0.9507 -0.813,-3.452 -1.1868,-5.5584 -0.3738,-2.1064 -1.2063,-4.0319 -1.8501,-4.279 -0.6438,-0.247 -4.4414,0.2389 -8.4391,1.0799 -3.9977,0.8409 -7.6307,1.529 -8.0731,1.529 -0.8801,0 -3.4805,-11.9176 -2.7581,-12.64 0.245,-0.2451 2.1019,-0.7144 4.1264,-1.0429 3.1107,-0.5048 3.7616,-0.2889 4.2016,1.3938 0.5195,1.9866 0.5418,1.9866 9.9392,-0.03 5.1801,-1.1119 9.6339,-1.8061 9.8973,-1.5427 0.2633,0.2633 0.7477,2.2526 1.0764,4.4205 0.3286,2.1679 1.4649,7.3917 2.525,11.6083 2.2094,8.788 2.3831,11.4337 0.8146,12.4031 -1.2848,0.7941 -14.7952,4.3876 -16.5919,4.4131 -0.6625,0.01 -1.4946,-1.5286 -1.8491,-3.4179 z"
             id="path4155"
             style="fill:#292f6d;fill-opacity:1" />
          <path
             d="m -1447.5075,1655.1227 c -1.7689,-4.2625 -4.5196,-10.3421 -6.1129,-13.5102 l -2.8967,-5.7602 10.7695,-5.0816 c 5.9232,-2.7948 11.2195,-5.1654 11.7695,-5.2679 0.55,-0.1025 1.4886,-0.4921 2.0857,-0.8657 0.5971,-0.3737 2.3971,-0.3441 4,0.066 2.4717,0.6319 3.6364,2.2342 7.6685,10.5498 6.6985,13.8146 6.7061,13.8832 1.7988,16.0961 -2.2404,1.0103 -4.241,1.6539 -4.4459,1.4304 -0.205,-0.2236 -2.0524,-3.7815 -4.1055,-7.9065 -5.3121,-10.6727 -4.8504,-10.3599 -10.8476,-7.3479 -6.3187,3.1735 -6.1524,3.0203 -4.9654,4.5737 0.5355,0.7008 2.6033,4.7634 4.5951,9.0281 l 3.6214,7.7539 -3.9127,1.9961 c -2.152,1.0978 -4.3386,1.9961 -4.8592,1.9961 -0.5206,0 -2.3938,-3.4875 -4.1626,-7.75 z"
             id="path4153"
             style="fill:#292f6d;fill-opacity:1" />
          <path
             d="m -1467.9865,1648.8507 c -1.4906,-3.901 -2.5485,-7.2069 -2.3509,-7.3464 0.1976,-0.1396 2.2327,-0.9622 4.5224,-1.8281 l 4.163,-1.5743 2.9407,7.3246 2.9408,7.3247 -2.6038,0.9937 c -6.9168,2.6397 -6.689,2.7557 -9.6122,-4.8942 z"
             id="path4151"
             style="fill:#292f6d;fill-opacity:1" />
          <path
             d="m -1604.2819,1680.7399 c -2.4642,-0.7103 -3.1668,-1.3863 -2.7643,-2.6598 0.6553,-2.0738 2.4035,-10.4102 3.1924,-15.2229 l 0.5762,-3.5155 -8.8934,-1.7977 c -11.4473,-2.3139 -11.509,-2.3562 -10.2229,-7.0139 0.7754,-2.8082 1.4622,-3.6337 2.7262,-3.2766 0.9293,0.2625 6.6396,1.4798 12.6896,2.7052 6.05,1.2253 11.6007,2.7739 12.3348,3.4414 1.1112,1.0102 1.0573,2.7011 -0.3217,10.0931 -3.7685,20.2014 -3.135,19.0287 -9.3169,17.2467 z"
             id="path4145"
             style="fill:#292f6d;fill-opacity:1" />
          <path
             d="m -1624.5685,1676.7077 -3.5905,-0.9583 1.6892,-7.1883 c 0.929,-3.9537 1.9887,-7.1144 2.3549,-7.0239 0.3661,0.091 2.4592,0.4676 4.6513,0.8379 2.192,0.3704 3.9855,0.8825 3.9855,1.1381 0,3.0003 -3.4426,14.3345 -4.3301,14.2561 -0.6434,-0.057 -2.7856,-0.5346 -4.7603,-1.0616 z"
             id="path4143"
             style="fill:#292f6d;fill-opacity:1" />
          <path
             d="m -1644.2763,1670.7056 c -0.92,-0.9492 -1.197,-2.877 -2.1313,-5.3742 -1.1066,-2.9575 -2.2989,-6.5206 -2.6496,-7.918 -0.3507,-1.3974 -0.9717,-2.5407 -1.3798,-2.5407 -0.4082,0 -2.6889,2.4395 -5.0681,5.4212 l -4.326,5.4213 -4.0735,-1.5839 c -2.2404,-0.8711 -4.2325,-1.7072 -4.4269,-1.858 -0.1943,-0.1507 2.8992,-4.1365 6.8744,-8.8572 l 7.2278,-8.5832 -1.2624,-4.5088 c -0.6943,-2.4798 -1.0877,-4.6712 -0.8744,-4.8698 0.2134,-0.1986 2.6783,0.657 5.4775,1.9012 4.9559,2.2029 5.1394,2.4363 6.9875,8.8897 1.044,3.6451 2.2412,6.6275 2.6605,6.6275 l 7.4845,-9.5321 8.3292,2.6277 -6.0256,8.7096 c -3.314,4.7903 -6.0256,9.4388 -6.0256,10.3301 0,0.8912 0.6811,3.2504 1.5135,5.2425 0.8016,1.9185 1.2321,2.9106 0.8061,3.1964 z"
             id="path4141"
             style="fill:#292f6d;fill-opacity:1" />
          <path
             d="m -1676.9781,1657.6539 c -2.2,-1.1177 -4.1461,-2.1594 -4.3246,-2.3147 -0.1786,-0.1554 2.6611,-6.1692 6.3103,-13.3641 l 6.635,-13.0815 3.9397,2.0099 c 2.1668,1.1054 3.9396,2.1584 3.9396,2.34 0,0.1816 -2.8125,6.2054 -6.25,13.3864 l -6.25,13.0562 -4,-2.0322 z"
             id="path4139"
             style="fill:#292f6d;fill-opacity:1" />
          <path
             d="m -1690.7924,1650.7278 c -2.0979,-1.0829 -3.6729,-2.2919 -3.5,-2.6867 2.6952,-6.1531 13.1278,-25.1684 13.8085,-25.1684 0.5044,0 2.4211,1.0207 4.2594,2.2682 l 3.3425,2.2682 -5.23,9.4818 c -2.8764,5.215 -6.0481,10.9047 -7.048,12.6438 l -1.8181,3.162 -3.8143,-1.9689 z"
             id="path4137"
             style="fill:#292f6d;fill-opacity:1" />
          <path
             d="m -1716.5181,1635.7241 c -1.903,-1.1452 -3.612,-2.2198 -3.7977,-2.3879 -0.1858,-0.1682 2.0081,-4.1447 4.8753,-8.8367 2.8673,-4.6921 4.9661,-9.1749 4.6641,-9.9619 -0.302,-0.787 -3.0584,-2.8665 -6.1254,-4.6213 -3.0669,-1.7547 -5.5763,-3.7323 -5.5763,-4.3945 0,-0.9634 1.4254,-3.5452 3.5716,-6.469 0.3791,-0.5165 17.8087,11.0036 19.1784,12.676 0.6875,0.8394 1.25,2.0151 1.25,2.6127 0,0.5976 -3.2805,6.1217 -7.29,12.2757 l -7.2901,11.189 -3.4599,-2.0821 z"
             id="path4135"
             style="fill:#292f6d;fill-opacity:1" />
          <path
             d="m -1697.6757,1631.212 -3.6977,-2.5404 2.664,-4.1495 c 5.7228,-8.9138 5.6697,-8.8712 8.2592,-6.6252 1.253,1.0867 2.8615,1.9758 3.5745,1.9758 0.8009,0 -0.2461,2.6753 -2.7395,7 -2.2196,3.85 -4.1094,6.9729 -4.1993,6.9399 -0.09,-0.033 -1.8275,-1.2034 -3.8612,-2.6006 z"
             id="path4133"
             style="fill:#292f6d;fill-opacity:1" />
        </g>
      </g>
      <g
         transform="translate(-444,106)"
         id="g4200">
        <g
           transform="translate(-582,-120)"
           id="g3836"
           style="fill:#ffffff;stroke:#292f6d;stroke-width:3;stroke-miterlimit:4;stroke-opacity:1;stroke-dasharray:none">
          <path
             d="m 155.01128,1093.727 c 46.28494,16.7218 71.63077,57.5881 77.48874,84.8852 -61.55898,-25.2094 -77.55149,-64.8017 -77.48874,-84.8852 z"
             id="path3838"
             style="fill:#ffffff;stroke:#292f6d;stroke-width:3;stroke-linecap:butt;stroke-linejoin:miter;stroke-miterlimit:4;stroke-opacity:1;stroke-dasharray:none" />
          <path
             d="m 155.35632,1094.245 76.76868,84.4922"
             id="path3840"
             style="fill:#ffffff;stroke:#292f6d;stroke-width:3;stroke-linecap:butt;stroke-linejoin:miter;stroke-miterlimit:4;stroke-opacity:1;stroke-dasharray:none" />
        </g>
        <g
           transform="matrix(-0.93641744,0.35088799,0.35088799,0.93641744,-531.46874,-59.772481)"
           id="g3842"
           style="fill:#ffffff;stroke:#292f6d;stroke-width:3;stroke-miterlimit:4;stroke-opacity:1;stroke-dasharray:none">
          <path
             d="m 155.01128,1093.727 c 67.34089,28.0462 86.2482,75.0096 91.00276,101.7133 -60.15128,-18.1353 -80.75358,-63.342 -91.00276,-101.7133 z"
             id="path3844"
             style="fill:#ffffff;stroke:#292f6d;stroke-width:3;stroke-linecap:butt;stroke-linejoin:miter;stroke-miterlimit:4;stroke-opacity:1;stroke-dasharray:none" />
          <path
             d="m 155.35632,1094.245 90.66319,100.9107"
             id="path3846"
             style="fill:#ffffff;stroke:#292f6d;stroke-width:3;stroke-linecap:butt;stroke-linejoin:miter;stroke-miterlimit:4;stroke-opacity:1;stroke-dasharray:none" />
        </g>
        <g
           transform="matrix(-0.93641744,0.35088799,0.35088799,0.93641744,-501.46874,30.227519)"
           id="g3848"
           style="fill:#ffffff;stroke:#292f6d;stroke-width:3;stroke-miterlimit:4;stroke-opacity:1;stroke-dasharray:none">
          <path
             d="m 233.87505,1179.4319 c -60.04884,-19.1062 -68.14215,-51.8109 -78.86377,-85.7049 46.78143,14.1814 60.53398,36.8053 69.42118,59.9063"
             id="path3850"
             style="fill:#ffffff;stroke:#292f6d;stroke-width:3;stroke-linecap:butt;stroke-linejoin:miter;stroke-miterlimit:4;stroke-opacity:1;stroke-dasharray:none" />
          <path
             d="m 156.5559,1094.5964 60.32863,67.6927"
             id="path3852"
             style="fill:#ffffff;stroke:#292f6d;stroke-width:3;stroke-linecap:butt;stroke-linejoin:miter;stroke-miterlimit:4;stroke-opacity:1;stroke-dasharray:none" />
        </g>
        <g
           transform="matrix(-0.98719522,0.15951664,0.15951664,0.98719522,-246.19584,113.63331)"
           id="g3854"
           style="fill:#ffffff;stroke:#292f6d;stroke-width:3;stroke-miterlimit:4;stroke-opacity:1;stroke-dasharray:none">
          <path
             d="m 155.01128,1093.727 c 49.7154,8.9464 69.4917,57.3005 82.1506,88.0227 -64.33333,-19.5819 -76.74808,-63.9262 -82.1506,-88.0227 z"
             id="path3856"
             style="fill:#ffffff;stroke:#292f6d;stroke-width:3;stroke-linecap:butt;stroke-linejoin:miter;stroke-miterlimit:4;stroke-opacity:1;stroke-dasharray:none" />
          <path
             d="m 156.5559,1094.5964 c 25.53277,27.6968 30.5862,28.2572 56.9556,55.3519"
             id="path3858"
             style="fill:#ffffff;stroke:#292f6d;stroke-width:3;stroke-linecap:butt;stroke-linejoin:miter;stroke-miterlimit:4;stroke-opacity:1;stroke-dasharray:none" />
        </g>
        <g
           id="g3879">
          <g
             transform="translate(61.70831,-42.7315)"
             id="g4405"
             style="fill:#ffffff;stroke:#292f6d;stroke-width:3;stroke-miterlimit:4;stroke-opacity:1;stroke-dasharray:none">
            <path
               d="m -446.84448,1394.6071 0,-394.76284 27.9287,-45.5 27.9287,45.5 0,394.76284 c -18.61913,0 -37.23827,0 -55.8574,0 z"
               id="path4395"
               style="fill:#ffffff;stroke:#292f6d;stroke-width:3;stroke-linecap:butt;stroke-linejoin:miter;stroke-miterlimit:4;stroke-opacity:1;stroke-dasharray:none" />
            <path
               d="m -418.91578,1394.6071 0,-440.26281"
               id="path4403"
               style="fill:#ffffff;stroke:#292f6d;stroke-width:3;stroke-linecap:butt;stroke-linejoin:miter;stroke-miterlimit:4;stroke-opacity:1;stroke-dasharray:none" />
          </g>
          <g
             transform="translate(-427.38778,-78.7315)"
             id="g5172"
             style="stroke:#292f6d;stroke-opacity:1">
            <rect
               width="54.75"
               height="71"
               x="42.805305"
               y="1434.1721"
               id="rect5159"
               style="fill:#ffffff;stroke:#292f6d;stroke-width:3.5;stroke-linecap:round;stroke-miterlimit:4;stroke-opacity:1;stroke-dasharray:none;stroke-dashoffset:0" />
            <rect
               width="67"
               height="16.25"
               rx="6.0036798"
               ry="6.0036798"
               x="36.680305"
               y="1505.2971"
               id="rect5163"
               style="fill:#ffffff;stroke:#292f6d;stroke-width:3;stroke-linecap:round;stroke-miterlimit:4;stroke-opacity:1;stroke-dasharray:none;stroke-dashoffset:0" />
            <path
               d="m 97.555305,1460.4221 -54.75,0"
               id="rect5165"
               style="fill:none;stroke:#292f6d;stroke-width:3.5;stroke-linecap:butt;stroke-miterlimit:4;stroke-opacity:1;stroke-dashoffset:0" />
            <path
               d="m 97.555305,1474.4221 -54.75,0"
               id="path5168"
               style="fill:none;stroke:#292f6d;stroke-width:3.5;stroke-linecap:butt;stroke-miterlimit:4;stroke-opacity:1;stroke-dashoffset:0" />
            <path
               d="m 97.555305,1490.4221 -54.75,0"
               id="path5170"
               style="fill:none;stroke:#292f6d;stroke-width:3.5;stroke-linecap:butt;stroke-miterlimit:4;stroke-opacity:1;stroke-dashoffset:0" />
          </g>
          <path
             d="m -337.28125,1359.8125 c -13.01798,21.1353 -26.51815,41.6398 -40.78125,61.2187 -0.26736,-0.034 -0.53589,-0.062 -0.8125,-0.062 -3.53541,0 -6.40625,2.8708 -6.40625,6.4062 0,3.5354 2.87084,6.375 6.40625,6.375 3.53541,0 6.40625,-2.8396 6.40625,-6.375 0,-0.6383 -0.0761,-1.262 -0.25,-1.8438 16.70267,-23.5985 28.97672,-42.1746 41.75,-62.75 l -6.3125,-2.9687 z"
             id="rect3860"
             style="fill:#ffffff;stroke:#292f6d;stroke-width:2.5;stroke-linecap:butt;stroke-miterlimit:4;stroke-opacity:1;stroke-dasharray:none;stroke-dashoffset:0" />
          <g
             transform="translate(83.21868,-193.48916)"
             id="g5155"
             style="fill:#ffffff;stroke:#292f6d;stroke-opacity:1">
            <path
               d="m -480.53553,1531.9195 -20.96875,13.8437 20.96875,13.8437 c 70.07292,0 10.14583,0 80.21875,0 l 20.96875,-13.8437 -20.96875,-13.8437 c -70.07292,0 -10.14583,0 -80.21875,0 z"
               id="path4411"
               style="fill:#ffffff;stroke:#292f6d;stroke-width:3.5;stroke-linecap:butt;stroke-linejoin:miter;stroke-miterlimit:4;stroke-opacity:1;stroke-dasharray:none" />
            <path
               d="m -381.34633,1545.7696 -120.15599,0"
               id="path4413"
               style="fill:#ffffff;stroke:#292f6d;stroke-width:2.5;stroke-linecap:butt;stroke-linejoin:miter;stroke-miterlimit:4;stroke-opacity:1;stroke-dasharray:none" />
          </g>
        </g>
        <g
           transform="translate(-98,38)"
           id="g3828">
          <path
             d="m 393.95948,785.68188 a 115.15739,115.15739 0 1 1 -230.31477,0 115.15739,115.15739 0 1 1 230.31477,0 z"
             transform="matrix(0.5514193,0,0,0.5514193,-412.94434,785.8372)"
             id="path4357"
             style="fill:#292f6d;fill-opacity:1;stroke:none" />
          <path
             d="m -308.45749,1190.6428 32.90017,-3e-4 16.34983,-28.4339 16.34984,28.4339 32.90016,3e-4 -16.55032,28.4346 16.55032,28.4345 -32.90016,3e-4 -16.34984,28.4339 -16.34983,-28.4339 -32.90017,-3e-4 16.55032,-28.4346 z"
             id="path4361"
             style="fill:#ffffff;fill-opacity:1;stroke:none" />
        </g>
        <g
           transform="translate(142,38)"
           id="g5329">
          <rect
             width="30.5"
             height="22.757359"
             x="-514.83051"
             y="1276.948"
             id="rect5294"
             style="fill:#292f6d;fill-opacity:1;stroke:none" />
          <path
             d="m -469.83699,1298.3207 c 16.27086,2.9755 27.45234,-7.0305 34.65891,-17.653 -11.59957,1.165 -26.16127,1.6852 -34.65891,17.653 z"
             id="path5193"
             style="fill:#ffffff;stroke:#292f6d;stroke-width:3;stroke-linecap:butt;stroke-linejoin:miter;stroke-miterlimit:4;stroke-opacity:1;stroke-dasharray:none" />
          <path
             d="m -448.90559,1277.4812 c 19.0889,4.4127 26.35821,-8.0878 31.03079,-20.9041 -11.3752,2.5519 -24.51562,4.03 -31.03079,20.9041 z"
             id="path5195"
             style="fill:#ffffff;stroke:#292f6d;stroke-width:3;stroke-linecap:butt;stroke-linejoin:miter;stroke-miterlimit:4;stroke-opacity:1;stroke-dasharray:none" />
          <path
             d="m -429.73266,1255.7648 c 18.45428,-2.4982 20.51247,-16.4441 22.10187,-29.3978 -10.32712,5.4091 -20.17603,11.4124 -22.10187,29.3978 z"
             id="path5197"
             style="fill:#ffffff;stroke:#292f6d;stroke-width:3;stroke-linecap:butt;stroke-linejoin:miter;stroke-miterlimit:4;stroke-opacity:1;stroke-dasharray:none" />
          <path
             d="m -421.51013,1230.4047 c 16.4134,-7.08 13.33037,-21.4785 13.0266,-34.6183 -8.52558,7.9472 -15.44843,17.1202 -13.0266,34.6183 z"
             id="path5199"
             style="fill:#ffffff;stroke:#292f6d;stroke-width:3;stroke-linecap:butt;stroke-linejoin:miter;stroke-miterlimit:4;stroke-opacity:1;stroke-dasharray:none" />
          <path
             d="m -419.83069,1203.2741 c 13.95759,-11.2778 5.02803,-26.368 0.90482,-35.808 -5.3791,9.9879 -7.61803,19.373 -0.90482,35.808 z"
             id="path5201"
             style="fill:#ffffff;stroke:#292f6d;stroke-width:3;stroke-linecap:butt;stroke-linejoin:miter;stroke-miterlimit:4;stroke-opacity:1;stroke-dasharray:none" />
          <path
             d="m -428.73292,1177.4792 c 8.60927,-16.4859 -4.76942,-28.712 -12.77388,-35.0717 -1.46362,11.5654 -0.88401,23.2122 12.77388,35.0717 z"
             id="path5203"
             style="fill:#ffffff;stroke:#292f6d;stroke-width:3;stroke-linecap:butt;stroke-linejoin:miter;stroke-miterlimit:4;stroke-opacity:1;stroke-dasharray:none" />
          <path
             d="m -447.41893,1155.5268 c -3.30369,-21.7331 -17.41522,-24.2453 -23.81814,-26.2734 1.18279,12.5294 5.91632,20.3523 23.81814,26.2734 z"
             id="path5205"
             style="fill:#ffffff;stroke:#292f6d;stroke-width:3;stroke-linecap:butt;stroke-linejoin:miter;stroke-miterlimit:4;stroke-opacity:1;stroke-dasharray:none" />
          <path
             d="m -465.37889,1147.9759 c -9.40795,-15.5006 -24.39336,-11.5044 -32.11791,-11.4127 8.17814,10.2989 17.65015,13.7158 32.11791,11.4127 z"
             id="path5207"
             style="fill:#ffffff;stroke:#292f6d;stroke-width:3;stroke-linecap:butt;stroke-linejoin:miter;stroke-miterlimit:4;stroke-opacity:1;stroke-dasharray:none" />
          <path
             d="m -532.17097,1148.5064 c 12.60973,-18.0506 24.04752,-11.4476 32.20629,-11.1476 -5.87805,10.018 -18.71406,14.1378 -32.20629,11.1476 z"
             id="path5209"
             style="fill:#ffffff;stroke:#292f6d;stroke-width:3;stroke-linecap:butt;stroke-linejoin:miter;stroke-miterlimit:4;stroke-opacity:1;stroke-dasharray:none" />
          <path
             d="m -529.14972,1297.6457 c -18.44379,1.9158 -26.45924,-6.5109 -32.97674,-16.5613 11.64533,0.7212 23.90084,0.9361 32.97674,16.5613 z"
             id="path5211"
             style="fill:#ffffff;stroke:#292f6d;stroke-width:3;stroke-linecap:butt;stroke-linejoin:miter;stroke-miterlimit:4;stroke-opacity:1;stroke-dasharray:none" />
          <path
             d="m -551.49708,1276.6904 c -18.47466,2.3633 -27.99341,-11.1034 -31.97182,-23.2043 10.60838,2.8075 24.81146,6.5453 31.97182,23.2043 z"
             id="path5213"
             style="fill:#ffffff;stroke:#292f6d;stroke-width:3;stroke-linecap:butt;stroke-linejoin:miter;stroke-miterlimit:4;stroke-opacity:1;stroke-dasharray:none" />
          <path
             d="m -569.42169,1253.8203 c -19.76471,-6.1674 -19.78471,-16.8813 -20.3341,-26.923 11.25588,5.4091 18.85665,8.9376 20.3341,26.923 z"
             id="path5215"
             style="fill:#ffffff;stroke:#292f6d;stroke-width:3;stroke-linecap:butt;stroke-linejoin:miter;stroke-miterlimit:4;stroke-opacity:1;stroke-dasharray:none" />
          <path
             d="m -576.35501,1229.3078 c -16.54872,-7.1476 -15.57867,-22.0986 -12.9016,-34.0518 9.35875,4.7636 15.7485,15.9722 12.9016,34.0518 z"
             id="path5217"
             style="fill:#ffffff;stroke:#292f6d;stroke-width:3;stroke-linecap:butt;stroke-linejoin:miter;stroke-miterlimit:4;stroke-opacity:1;stroke-dasharray:none" />
          <path
             d="m -575.65684,1202.3006 c -13.44892,-11.7369 -5.91312,-31.1046 -2.00837,-35.7184 5.48875,9.9345 8.65263,19.2159 2.00837,35.7184 z"
             id="path5219"
             style="fill:#ffffff;stroke:#292f6d;stroke-width:3;stroke-linecap:butt;stroke-linejoin:miter;stroke-miterlimit:4;stroke-opacity:1;stroke-dasharray:none" />
          <path
             d="m -567.23945,1175.5347 c -8.60927,-16.4859 2.82488,-27.2978 10.82934,-33.6575 1.46362,11.5654 2.82855,21.798 -10.82934,33.6575 z"
             id="path5221"
             style="fill:#ffffff;stroke:#292f6d;stroke-width:3;stroke-linecap:butt;stroke-linejoin:miter;stroke-miterlimit:4;stroke-opacity:1;stroke-dasharray:none" />
          <path
             d="m -548.25317,1156.4384 c 0.69373,-20.1298 14.17951,-24.3262 22.27308,-27.3893 -1.36364,12.4253 -5.03396,21.0859 -22.27308,27.3893 z"
             id="path5223"
             style="fill:#ffffff;stroke:#292f6d;stroke-width:3;stroke-linecap:butt;stroke-linejoin:miter;stroke-miterlimit:4;stroke-opacity:1;stroke-dasharray:none" />
          <path
             d="m -471.30973,1296.3859 c -4.49673,-17.4354 2.52045,-27.9117 11.13809,-36.2599 1.85318,9.0251 2.07663,22.7832 -11.13809,36.2599 z"
             id="path5225"
             style="fill:#ffffff;stroke:#292f6d;stroke-width:3;stroke-linecap:butt;stroke-linejoin:miter;stroke-miterlimit:4;stroke-opacity:1;stroke-dasharray:none" />
          <path
             d="m -450.8009,1275.9703 c -10.82983,-16.4007 -1.60029,-30.2296 5.00104,-35.4925 3.73695,10.8678 6.39662,21.3714 -5.00104,35.4925 z"
             id="path5227"
             style="fill:#ffffff;stroke:#292f6d;stroke-width:3;stroke-linecap:butt;stroke-linejoin:miter;stroke-miterlimit:4;stroke-opacity:1;stroke-dasharray:none" />
          <path
             d="m -431.79282,1255.0358 c -17.22132,-16.1723 -10.60747,-25.3867 -7.4966,-34.5802 7.55659,8.2162 15.19382,20.557 7.4966,34.5802 z"
             id="path5229"
             style="fill:#ffffff;stroke:#292f6d;stroke-width:3;stroke-linecap:butt;stroke-linejoin:miter;stroke-miterlimit:4;stroke-opacity:1;stroke-dasharray:none" />
          <path
             d="m -424.01839,1230.4992 c -17.68656,-6.3472 -14.8153,-22.5162 -17.92271,-31.7379 13.39134,6.6852 19.7592,11.9828 17.92271,31.7379 z"
             id="path5231"
             style="fill:#ffffff;stroke:#292f6d;stroke-width:3;stroke-linecap:butt;stroke-linejoin:miter;stroke-miterlimit:4;stroke-opacity:1;stroke-dasharray:none" />
          <path
             d="m -422.58716,1204.2229 c -20.68233,-0.4815 -26.46383,-19.3101 -25.50814,-23.5152 16.715,5.7635 19.96429,6.303 25.50814,23.5152 z"
             id="path5233"
             style="fill:#ffffff;stroke:#292f6d;stroke-width:3;stroke-linecap:butt;stroke-linejoin:miter;stroke-miterlimit:4;stroke-opacity:1;stroke-dasharray:none" />
          <path
             d="m -430.30733,1178.8072 c -21.51924,4.3855 -28.66911,-5.986 -34.62974,-13.8086 12.33686,-1.7391 27.94162,-1.6961 34.62974,13.8086 z"
             id="path5235"
             style="fill:#ffffff;stroke:#292f6d;stroke-width:3;stroke-linecap:butt;stroke-linejoin:miter;stroke-miterlimit:4;stroke-opacity:1;stroke-dasharray:none" />
          <path
             d="m -448.21313,1157.6924 c -17.87559,11.7599 -29.16764,1.9948 -34.95401,0.1352 15.45996,-10.178 21.1448,-9.8381 34.95401,-0.1352 z"
             id="path5237"
             style="fill:#ffffff;stroke:#292f6d;stroke-width:3;stroke-linecap:butt;stroke-linejoin:miter;stroke-miterlimit:4;stroke-opacity:1;stroke-dasharray:none" />
          <path
             d="m -527.53507,1296.729 c 5.35971,-17.3828 -2.79202,-28.6428 -11.72975,-37.0146 -1.69883,11.4801 -3.6274,29.304 11.72975,37.0146 z"
             id="path5239"
             style="fill:#ffffff;stroke:#292f6d;stroke-width:3;stroke-linecap:butt;stroke-linejoin:miter;stroke-miterlimit:4;stroke-opacity:1;stroke-dasharray:none" />
          <path
             d="m -549.60261,1275.1411 c 9.12235,-18.2608 1.09677,-28.9458 -4.99568,-34.0676 -3.44305,11.1617 -6.23167,20.1168 4.99568,34.0676 z"
             id="path5241"
             style="fill:#ffffff;stroke:#292f6d;stroke-width:3;stroke-linecap:butt;stroke-linejoin:miter;stroke-miterlimit:4;stroke-opacity:1;stroke-dasharray:none" />
          <path
             d="m -567.27042,1253.1774 c 11.57535,-12.9937 10.99048,-16.4447 8.47835,-32.1206 -7.64761,5.735 -15.46691,16.4953 -8.47835,32.1206 z"
             id="path5243"
             style="fill:#ffffff;stroke:#292f6d;stroke-width:3;stroke-linecap:butt;stroke-linejoin:miter;stroke-miterlimit:4;stroke-opacity:1;stroke-dasharray:none" />
          <path
             d="m -573.61811,1229.2178 c 17.20711,-6.4275 14.50273,-22.0991 15.52072,-28.1732 -11.64308,4.0109 -15.502,7.7719 -15.52072,28.1732 z"
             id="path5245"
             style="fill:#ffffff;stroke:#292f6d;stroke-width:3;stroke-linecap:butt;stroke-linejoin:miter;stroke-miterlimit:4;stroke-opacity:1;stroke-dasharray:none" />
          <path
             d="m -573.3335,1203.2178 c 17.71189,0.6957 24.47062,-18.4951 23.5636,-21.9242 -11.45154,2.5035 -24.30815,7.0384 -23.5636,21.9242 z"
             id="path5247"
             style="fill:#ffffff;stroke:#292f6d;stroke-width:3;stroke-linecap:butt;stroke-linejoin:miter;stroke-miterlimit:4;stroke-opacity:1;stroke-dasharray:none" />
          <path
             d="m -565.47286,1177.3117 c 14.6584,7.0021 25.99174,-3.8826 31.47365,-10.8811 -10.96376,-3.664 -21.6254,-4.6684 -31.47365,10.8811 z"
             id="path5249"
             style="fill:#ffffff;stroke:#292f6d;stroke-width:3;stroke-linecap:butt;stroke-linejoin:miter;stroke-miterlimit:4;stroke-opacity:1;stroke-dasharray:none" />
          <path
             d="m -546.76856,1158.4066 c 17.69789,8.2269 25.75311,-9e-4 31.74197,-1.5167 -16.22209,-9.1782 -18.41985,-7.2882 -31.74197,1.5167 z"
             id="path5251"
             style="fill:#ffffff;stroke:#292f6d;stroke-width:3;stroke-linecap:butt;stroke-linejoin:miter;stroke-miterlimit:4;stroke-opacity:1;stroke-dasharray:none" />
          <path
             d="m -485.3863,1299.7559 c -8.18063,-14.562 0.25655,-20.8786 10.94536,-30.169 3.73693,9.3243 -0.57399,26.8911 -10.94536,30.169 z"
             id="path5253"
             style="fill:#ffffff;stroke:#292f6d;stroke-width:3;stroke-linecap:butt;stroke-linejoin:miter;stroke-miterlimit:4;stroke-opacity:1;stroke-dasharray:none" />
          <path
             d="m -512.94498,1299.5791 c 7.85238,-16.6271 -1.50458,-22.6098 -11.56408,-31.2296 -3.04169,9.258 2.33935,27.791 11.56408,31.2296 z"
             id="path5255"
             style="fill:#ffffff;stroke:#292f6d;stroke-width:3;stroke-linecap:butt;stroke-linejoin:miter;stroke-miterlimit:4;stroke-opacity:1;stroke-dasharray:none" />
          <path
             d="m 213.28108,1322.3885 a 7.8665628,7.8665628 0 1 1 -15.73312,0 7.8665628,7.8665628 0 1 1 15.73312,0 z"
             transform="matrix(1.1742311,0,0,1.1742311,-740.41162,-262.11905)"
             id="path5257"
             style="fill:#ffffff;stroke:#292f6d;stroke-width:2.5;stroke-linecap:butt;stroke-miterlimit:4;stroke-opacity:1;stroke-dasharray:none;stroke-dashoffset:0" />
        </g>
        <g
           transform="translate(-564,0)"
           id="g3832"
           style="fill:#ffffff;stroke:#292f6d;stroke-width:3;stroke-miterlimit:4;stroke-opacity:1;stroke-dasharray:none">
          <path
             d="m 155.67419,1093.8596 c 47.13849,12.8808 75.67057,53.1683 81.07583,82.5026 -59.14516,-16.5886 -82.42295,-59.0921 -81.07583,-82.5026 z"
             id="path3051"
             style="fill:#ffffff;stroke:#292f6d;stroke-width:3;stroke-linecap:butt;stroke-linejoin:miter;stroke-miterlimit:4;stroke-opacity:1;stroke-dasharray:none" />
          <path
             d="m 155.93084,1094.1566 80.44416,81.8306"
             id="path3055"
             style="fill:#ffffff;stroke:#292f6d;stroke-width:3;stroke-linecap:butt;stroke-linejoin:miter;stroke-miterlimit:4;stroke-opacity:1;stroke-dasharray:none" />
        </g>
      </g>
    </g>
  </g>
</svg>
